# xmcd
#
# Track frame offsets:
#	150
#	17009
#	35041
#	53581
#	75158
#	92751
#	112743
#	128779
#	152252
#	175499
#	198630
#	232167
#
# Disc length: 4442 seconds
#
# Revision: 0
# Processed by: cddbd v1.4PL0 Copyright (c) Steve Scherf et al.
# Submitted via: EasyCDDAExtractor 5.0.5.1
#
DISCID=8c11580c
DTITLE=Chris Cagle
DYEAR=2003
DGENRE=Country
TTITLE0=what a beautifull day
TTITLE1=chicks dig it
TTITLE2=look what i found
TTITLE3=i love it when she does that
TTITLE4=night on the country
TTITLE5=i'd be flying
TTITLE6=everything
TTITLE7=it take two
TTITLE8=growin' love
TTITLE9=just love me
TTITLE10=look at what i've done
TTITLE11=Data Track
EXTD=
EXTT0=
EXTT1=
EXTT2=
EXTT3=
EXTT4=
EXTT5=
EXTT6=
EXTT7=
EXTT8=
EXTT9=
EXTT10=
EXTT11=
PLAYORDER=
